<mxfile host="app.diagrams.net" agent="Mozilla/5.0 (Macintosh; Intel Mac OS X 10_15_7) AppleWebKit/537.36 (KHTML, like Gecko) Chrome/127.0.0.0 Safari/537.36" version="24.7.7">
  <diagram name="Page-1" id="yA_tHBxAm4CNeicl3hR5">
    <mxGraphModel dx="4095" dy="3256" grid="1" gridSize="10" guides="1" tooltips="1" connect="1" arrows="1" fold="1" page="0" pageScale="1" pageWidth="827" pageHeight="1169" math="0" shadow="0">
      <root>
        <mxCell id="0" />
        <mxCell id="1" parent="0" />
        <mxCell id="y2iiQ8Q4Z8U-UJoLPL8x-32" value="VPC" style="points=[[0,0],[0.25,0],[0.5,0],[0.75,0],[1,0],[1,0.25],[1,0.5],[1,0.75],[1,1],[0.75,1],[0.5,1],[0.25,1],[0,1],[0,0.75],[0,0.5],[0,0.25]];outlineConnect=0;gradientColor=none;html=1;whiteSpace=wrap;fontSize=12;fontStyle=0;container=1;pointerEvents=0;collapsible=0;recursiveResize=0;shape=mxgraph.aws4.group;grIcon=mxgraph.aws4.group_vpc2;strokeColor=#8C4FFF;fillColor=none;verticalAlign=top;align=left;spacingLeft=30;fontColor=#AAB7B8;dashed=0;" parent="1" vertex="1">
          <mxGeometry x="-1300" y="-1880" width="940" height="600" as="geometry" />
        </mxCell>
        <mxCell id="y2iiQ8Q4Z8U-UJoLPL8x-34" value="AWS Cloud" style="points=[[0,0],[0.25,0],[0.5,0],[0.75,0],[1,0],[1,0.25],[1,0.5],[1,0.75],[1,1],[0.75,1],[0.5,1],[0.25,1],[0,1],[0,0.75],[0,0.5],[0,0.25]];outlineConnect=0;gradientColor=none;html=1;whiteSpace=wrap;fontSize=12;fontStyle=0;container=1;pointerEvents=0;collapsible=0;recursiveResize=0;shape=mxgraph.aws4.group;grIcon=mxgraph.aws4.group_aws_cloud_alt;strokeColor=#232F3E;fillColor=none;verticalAlign=top;align=left;spacingLeft=30;fontColor=#232F3E;dashed=0;" parent="1" vertex="1">
          <mxGeometry x="-1340" y="-1930" width="1050" height="700" as="geometry" />
        </mxCell>
        <mxCell id="y2iiQ8Q4Z8U-UJoLPL8x-35" style="edgeStyle=orthogonalEdgeStyle;rounded=0;orthogonalLoop=1;jettySize=auto;html=1;fillColor=#f8cecc;strokeColor=#b85450;" parent="y2iiQ8Q4Z8U-UJoLPL8x-34" source="y2iiQ8Q4Z8U-UJoLPL8x-36" target="y2iiQ8Q4Z8U-UJoLPL8x-39" edge="1">
          <mxGeometry relative="1" as="geometry">
            <Array as="points">
              <mxPoint x="460" y="160" />
              <mxPoint x="460" y="160" />
            </Array>
          </mxGeometry>
        </mxCell>
        <mxCell id="y2iiQ8Q4Z8U-UJoLPL8x-36" value="" style="sketch=0;outlineConnect=0;fontColor=#232F3E;gradientColor=none;fillColor=#8C4FFF;strokeColor=none;dashed=0;verticalLabelPosition=bottom;verticalAlign=top;align=center;html=1;fontSize=12;fontStyle=0;aspect=fixed;pointerEvents=1;shape=mxgraph.aws4.internet_gateway;fillStyle=solid;" parent="y2iiQ8Q4Z8U-UJoLPL8x-34" vertex="1">
          <mxGeometry x="420" y="50" width="80" height="80" as="geometry" />
        </mxCell>
        <mxCell id="y2iiQ8Q4Z8U-UJoLPL8x-37" style="edgeStyle=orthogonalEdgeStyle;rounded=0;orthogonalLoop=1;jettySize=auto;html=1;entryX=0.5;entryY=0;entryDx=0;entryDy=0;dashed=1;" parent="y2iiQ8Q4Z8U-UJoLPL8x-34" source="y2iiQ8Q4Z8U-UJoLPL8x-39" target="y2iiQ8Q4Z8U-UJoLPL8x-44" edge="1">
          <mxGeometry relative="1" as="geometry" />
        </mxCell>
        <mxCell id="y2iiQ8Q4Z8U-UJoLPL8x-38" style="edgeStyle=orthogonalEdgeStyle;rounded=0;orthogonalLoop=1;jettySize=auto;html=1;entryX=0.5;entryY=0;entryDx=0;entryDy=0;dashed=1;" parent="y2iiQ8Q4Z8U-UJoLPL8x-34" source="y2iiQ8Q4Z8U-UJoLPL8x-39" target="y2iiQ8Q4Z8U-UJoLPL8x-45" edge="1">
          <mxGeometry relative="1" as="geometry" />
        </mxCell>
        <mxCell id="y2iiQ8Q4Z8U-UJoLPL8x-39" value="" style="sketch=0;outlineConnect=0;fontColor=#232F3E;gradientColor=none;fillColor=#8C4FFF;strokeColor=none;dashed=0;verticalLabelPosition=bottom;verticalAlign=top;align=center;html=1;fontSize=12;fontStyle=0;aspect=fixed;pointerEvents=1;shape=mxgraph.aws4.route_table;" parent="y2iiQ8Q4Z8U-UJoLPL8x-34" vertex="1">
          <mxGeometry x="420" y="180" width="82.85" height="80.72" as="geometry" />
        </mxCell>
        <mxCell id="y2iiQ8Q4Z8U-UJoLPL8x-40" value="Public subnet" style="points=[[0,0],[0.25,0],[0.5,0],[0.75,0],[1,0],[1,0.25],[1,0.5],[1,0.75],[1,1],[0.75,1],[0.5,1],[0.25,1],[0,1],[0,0.75],[0,0.5],[0,0.25]];outlineConnect=0;gradientColor=none;html=1;whiteSpace=wrap;fontSize=12;fontStyle=0;container=1;pointerEvents=0;collapsible=0;recursiveResize=0;shape=mxgraph.aws4.group;grIcon=mxgraph.aws4.group_security_group;grStroke=0;strokeColor=#7AA116;fillColor=#F2F6E8;verticalAlign=top;align=left;spacingLeft=30;fontColor=#248814;dashed=0;" parent="y2iiQ8Q4Z8U-UJoLPL8x-34" vertex="1">
          <mxGeometry x="110" y="380" width="175" height="230" as="geometry" />
        </mxCell>
        <mxCell id="y2iiQ8Q4Z8U-UJoLPL8x-41" value="" style="sketch=0;points=[[0,0,0],[0.25,0,0],[0.5,0,0],[0.75,0,0],[1,0,0],[0,1,0],[0.25,1,0],[0.5,1,0],[0.75,1,0],[1,1,0],[0,0.25,0],[0,0.5,0],[0,0.75,0],[1,0.25,0],[1,0.5,0],[1,0.75,0]];outlineConnect=0;fontColor=#232F3E;fillColor=#ED7100;strokeColor=#ffffff;dashed=0;verticalLabelPosition=bottom;verticalAlign=top;align=center;html=1;fontSize=12;fontStyle=0;aspect=fixed;shape=mxgraph.aws4.resourceIcon;resIcon=mxgraph.aws4.ec2;" parent="y2iiQ8Q4Z8U-UJoLPL8x-40" vertex="1">
          <mxGeometry x="33" y="110" width="60" height="60" as="geometry" />
        </mxCell>
        <mxCell id="y2iiQ8Q4Z8U-UJoLPL8x-42" value="&lt;h4&gt;&lt;span style=&quot;font-weight: 400;&quot;&gt;&lt;i&gt;Ec2-Instance&lt;/i&gt;&lt;/span&gt;&lt;/h4&gt;" style="text;html=1;align=center;verticalAlign=middle;whiteSpace=wrap;rounded=0;" parent="y2iiQ8Q4Z8U-UJoLPL8x-40" vertex="1">
          <mxGeometry x="15.5" y="90" width="95" height="20" as="geometry" />
        </mxCell>
        <mxCell id="y2iiQ8Q4Z8U-UJoLPL8x-56" value="&lt;h4&gt;&lt;span style=&quot;font-weight: 400;&quot;&gt;&lt;i&gt;US-east-1a&lt;/i&gt;&lt;/span&gt;&lt;/h4&gt;" style="text;html=1;align=center;verticalAlign=middle;whiteSpace=wrap;rounded=0;fillColor=#f8cecc;strokeColor=#b85450;" parent="y2iiQ8Q4Z8U-UJoLPL8x-40" vertex="1">
          <mxGeometry x="7.5" y="30" width="160" height="30" as="geometry" />
        </mxCell>
        <mxCell id="y2iiQ8Q4Z8U-UJoLPL8x-43" style="edgeStyle=orthogonalEdgeStyle;rounded=0;orthogonalLoop=1;jettySize=auto;html=1;dashed=1;" parent="y2iiQ8Q4Z8U-UJoLPL8x-34" source="y2iiQ8Q4Z8U-UJoLPL8x-39" target="y2iiQ8Q4Z8U-UJoLPL8x-40" edge="1">
          <mxGeometry relative="1" as="geometry" />
        </mxCell>
        <mxCell id="y2iiQ8Q4Z8U-UJoLPL8x-44" value="Public subnet" style="points=[[0,0],[0.25,0],[0.5,0],[0.75,0],[1,0],[1,0.25],[1,0.5],[1,0.75],[1,1],[0.75,1],[0.5,1],[0.25,1],[0,1],[0,0.75],[0,0.5],[0,0.25]];outlineConnect=0;gradientColor=none;html=1;whiteSpace=wrap;fontSize=12;fontStyle=0;container=1;pointerEvents=0;collapsible=0;recursiveResize=0;shape=mxgraph.aws4.group;grIcon=mxgraph.aws4.group_security_group;grStroke=0;strokeColor=#7AA116;fillColor=#F2F6E8;verticalAlign=top;align=left;spacingLeft=30;fontColor=#248814;dashed=0;" parent="y2iiQ8Q4Z8U-UJoLPL8x-34" vertex="1">
          <mxGeometry x="360" y="380" width="160" height="230" as="geometry" />
        </mxCell>
        <mxCell id="y2iiQ8Q4Z8U-UJoLPL8x-57" value="&lt;h4&gt;&lt;span style=&quot;font-weight: 400;&quot;&gt;&lt;i&gt;US-east-1b&lt;/i&gt;&lt;/span&gt;&lt;/h4&gt;" style="text;html=1;align=center;verticalAlign=middle;whiteSpace=wrap;rounded=0;fillColor=#f8cecc;strokeColor=#b85450;fontFamily=Helvetica;fontSize=12;fontColor=default;" parent="y2iiQ8Q4Z8U-UJoLPL8x-44" vertex="1">
          <mxGeometry x="30" y="40" width="120" height="30" as="geometry" />
        </mxCell>
        <mxCell id="y2iiQ8Q4Z8U-UJoLPL8x-45" value="Public subnet" style="points=[[0,0],[0.25,0],[0.5,0],[0.75,0],[1,0],[1,0.25],[1,0.5],[1,0.75],[1,1],[0.75,1],[0.5,1],[0.25,1],[0,1],[0,0.75],[0,0.5],[0,0.25]];outlineConnect=0;gradientColor=none;html=1;whiteSpace=wrap;fontSize=12;fontStyle=0;container=1;pointerEvents=0;collapsible=0;recursiveResize=0;shape=mxgraph.aws4.group;grIcon=mxgraph.aws4.group_security_group;grStroke=0;strokeColor=#7AA116;fillColor=#F2F6E8;verticalAlign=top;align=left;spacingLeft=30;fontColor=#248814;dashed=0;" parent="y2iiQ8Q4Z8U-UJoLPL8x-34" vertex="1">
          <mxGeometry x="600" y="380" width="130" height="230" as="geometry" />
        </mxCell>
        <mxCell id="y2iiQ8Q4Z8U-UJoLPL8x-59" value="&lt;h4&gt;&lt;span style=&quot;font-weight: 400;&quot;&gt;&lt;i&gt;US-east-1c&lt;/i&gt;&lt;/span&gt;&lt;/h4&gt;" style="text;html=1;align=center;verticalAlign=middle;whiteSpace=wrap;rounded=0;fillColor=#f8cecc;strokeColor=#b85450;fontFamily=Helvetica;fontSize=12;fontColor=default;" parent="y2iiQ8Q4Z8U-UJoLPL8x-45" vertex="1">
          <mxGeometry x="5" y="40" width="120" height="30" as="geometry" />
        </mxCell>
        <mxCell id="y2iiQ8Q4Z8U-UJoLPL8x-46" value="&lt;h4&gt;&lt;span style=&quot;font-weight: normal;&quot;&gt;&lt;i&gt;Internet GateWay(Entry Gate to VPC)&lt;/i&gt;&lt;/span&gt;&lt;/h4&gt;" style="text;html=1;align=center;verticalAlign=middle;whiteSpace=wrap;rounded=0;" parent="y2iiQ8Q4Z8U-UJoLPL8x-34" vertex="1">
          <mxGeometry x="200" y="75" width="220" height="30" as="geometry" />
        </mxCell>
        <mxCell id="y2iiQ8Q4Z8U-UJoLPL8x-47" value="&lt;h4&gt;&lt;span style=&quot;font-weight: 400;&quot;&gt;&lt;i&gt;Route Table (Route 2 way Traffic, Subnet &amp;amp; IGW)&lt;/i&gt;&lt;/span&gt;&lt;/h4&gt;" style="text;html=1;align=center;verticalAlign=middle;whiteSpace=wrap;rounded=0;" parent="y2iiQ8Q4Z8U-UJoLPL8x-34" vertex="1">
          <mxGeometry x="210" y="180" width="220" height="30" as="geometry" />
        </mxCell>
        <mxCell id="y2iiQ8Q4Z8U-UJoLPL8x-48" style="edgeStyle=orthogonalEdgeStyle;rounded=0;orthogonalLoop=1;jettySize=auto;html=1;entryX=1;entryY=0.5;entryDx=0;entryDy=0;entryPerimeter=0;fillColor=#f8cecc;strokeColor=#b85450;dashed=1;dashPattern=8 8;" parent="y2iiQ8Q4Z8U-UJoLPL8x-34" source="y2iiQ8Q4Z8U-UJoLPL8x-39" target="y2iiQ8Q4Z8U-UJoLPL8x-41" edge="1">
          <mxGeometry relative="1" as="geometry" />
        </mxCell>
        <mxCell id="y2iiQ8Q4Z8U-UJoLPL8x-49" value="&lt;h1 style=&quot;text-align: center; margin-top: 0px;&quot;&gt;&lt;u&gt;&lt;font face=&quot;Courier New&quot;&gt;Basic Network Concept&lt;/font&gt;&lt;/u&gt;&lt;/h1&gt;&lt;div style=&quot;text-align: center;&quot;&gt;&lt;b style=&quot;&quot;&gt;&lt;i&gt;1. VPC creation&lt;/i&gt;&lt;/b&gt;&lt;/div&gt;&lt;div style=&quot;text-align: center;&quot;&gt;&lt;b&gt;&lt;i&gt;&lt;br&gt;&lt;/i&gt;&lt;/b&gt;&lt;/div&gt;&lt;div style=&quot;text-align: center;&quot;&gt;&lt;b&gt;&lt;i&gt;2. Entry gate IGW attach to VPC&lt;/i&gt;&lt;/b&gt;&lt;/div&gt;&lt;div style=&quot;text-align: center;&quot;&gt;&lt;b&gt;&lt;i&gt;&lt;br&gt;&lt;/i&gt;&lt;/b&gt;&lt;/div&gt;&lt;div style=&quot;text-align: center;&quot;&gt;&lt;b&gt;&lt;i&gt;3.Route table Associate with IGW &amp;amp; Public Subnets&lt;/i&gt;&lt;/b&gt;&lt;/div&gt;&lt;div style=&quot;text-align: center;&quot;&gt;&lt;b&gt;&lt;i&gt;&lt;br&gt;&lt;/i&gt;&lt;/b&gt;&lt;/div&gt;&lt;div&gt;&lt;div style=&quot;text-align: center;&quot;&gt;&lt;span style=&quot;background-color: initial;&quot;&gt;&lt;b&gt;&lt;i&gt;4. Creating EC2 in 1A subnet&amp;nbsp;&lt;/i&gt;&lt;/b&gt;&lt;/span&gt;&lt;/div&gt;&lt;b style=&quot;&quot;&gt;&lt;i&gt;&lt;div style=&quot;text-align: center;&quot;&gt;&lt;br&gt;&lt;/div&gt;&lt;div style=&quot;text-align: center;&quot;&gt;&lt;span style=&quot;background-color: initial;&quot;&gt;Now the traffic is flowing as the flow chart&amp;nbsp;&lt;/span&gt;&lt;/div&gt;&lt;/i&gt;&lt;/b&gt;&lt;br&gt;&lt;/div&gt;&lt;div&gt;&lt;br&gt;&lt;/div&gt;" style="text;html=1;whiteSpace=wrap;overflow=hidden;rounded=0;fillColor=#f8cecc;strokeColor=#b85450;" parent="y2iiQ8Q4Z8U-UJoLPL8x-34" vertex="1">
          <mxGeometry x="680" y="60" width="290" height="313" as="geometry" />
        </mxCell>
        <mxCell id="y2iiQ8Q4Z8U-UJoLPL8x-50" style="edgeStyle=orthogonalEdgeStyle;rounded=0;orthogonalLoop=1;jettySize=auto;html=1;exitX=0.96;exitY=0.7;exitDx=0;exitDy=0;exitPerimeter=0;dashed=1;fillColor=#f8cecc;strokeColor=#b85450;" parent="1" source="y2iiQ8Q4Z8U-UJoLPL8x-51" target="y2iiQ8Q4Z8U-UJoLPL8x-36" edge="1">
          <mxGeometry relative="1" as="geometry" />
        </mxCell>
        <mxCell id="y2iiQ8Q4Z8U-UJoLPL8x-51" value="" style="ellipse;shape=cloud;whiteSpace=wrap;html=1;fillColor=#f8cecc;strokeColor=#b85450;" parent="1" vertex="1">
          <mxGeometry x="-1250" y="-2080" width="120" height="80" as="geometry" />
        </mxCell>
        <mxCell id="y2iiQ8Q4Z8U-UJoLPL8x-52" value="&lt;h4&gt;&lt;span style=&quot;font-weight: normal;&quot;&gt;&lt;i&gt;Internet&lt;/i&gt;&lt;/span&gt;&lt;/h4&gt;" style="text;html=1;align=center;verticalAlign=middle;whiteSpace=wrap;rounded=0;" parent="1" vertex="1">
          <mxGeometry x="-1270" y="-2050" width="160" height="30" as="geometry" />
        </mxCell>
        <mxCell id="y2iiQ8Q4Z8U-UJoLPL8x-156" value="" style="shape=image;verticalLabelPosition=bottom;labelBackgroundColor=default;verticalAlign=top;aspect=fixed;imageAspect=0;image=https://miro.medium.com/v2/resize:fit:1400/1*tFl-8wQUENETYLjX5mYWuA.png;" parent="1" vertex="1">
          <mxGeometry x="-2430" y="-1770" width="533.33" height="280" as="geometry" />
        </mxCell>
        <mxCell id="y2iiQ8Q4Z8U-UJoLPL8x-283" value="VPC" style="points=[[0,0],[0.25,0],[0.5,0],[0.75,0],[1,0],[1,0.25],[1,0.5],[1,0.75],[1,1],[0.75,1],[0.5,1],[0.25,1],[0,1],[0,0.75],[0,0.5],[0,0.25]];outlineConnect=0;gradientColor=none;html=1;whiteSpace=wrap;fontSize=12;fontStyle=0;container=1;pointerEvents=0;collapsible=0;recursiveResize=0;shape=mxgraph.aws4.group;grIcon=mxgraph.aws4.group_vpc2;strokeColor=#8C4FFF;fillColor=none;verticalAlign=top;align=left;spacingLeft=30;fontColor=#AAB7B8;dashed=0;" parent="1" vertex="1">
          <mxGeometry x="130" y="-1860" width="1750" height="1220" as="geometry" />
        </mxCell>
        <mxCell id="y2iiQ8Q4Z8U-UJoLPL8x-284" value="AWS Cloud" style="points=[[0,0],[0.25,0],[0.5,0],[0.75,0],[1,0],[1,0.25],[1,0.5],[1,0.75],[1,1],[0.75,1],[0.5,1],[0.25,1],[0,1],[0,0.75],[0,0.5],[0,0.25]];outlineConnect=0;gradientColor=none;html=1;whiteSpace=wrap;fontSize=12;fontStyle=0;container=1;pointerEvents=0;collapsible=0;recursiveResize=0;shape=mxgraph.aws4.group;grIcon=mxgraph.aws4.group_aws_cloud_alt;strokeColor=#232F3E;fillColor=none;verticalAlign=top;align=left;spacingLeft=30;fontColor=#232F3E;dashed=0;" parent="1" vertex="1">
          <mxGeometry x="100" y="-1910" width="1820" height="1320" as="geometry" />
        </mxCell>
        <mxCell id="y2iiQ8Q4Z8U-UJoLPL8x-285" style="edgeStyle=orthogonalEdgeStyle;rounded=0;orthogonalLoop=1;jettySize=auto;html=1;fillColor=#f8cecc;strokeColor=#b85450;" parent="y2iiQ8Q4Z8U-UJoLPL8x-284" source="y2iiQ8Q4Z8U-UJoLPL8x-286" target="y2iiQ8Q4Z8U-UJoLPL8x-288" edge="1">
          <mxGeometry relative="1" as="geometry">
            <Array as="points">
              <mxPoint x="460" y="160" />
              <mxPoint x="460" y="160" />
            </Array>
          </mxGeometry>
        </mxCell>
        <mxCell id="y2iiQ8Q4Z8U-UJoLPL8x-286" value="" style="sketch=0;outlineConnect=0;fontColor=#232F3E;gradientColor=none;fillColor=#8C4FFF;strokeColor=none;dashed=0;verticalLabelPosition=bottom;verticalAlign=top;align=center;html=1;fontSize=12;fontStyle=0;aspect=fixed;pointerEvents=1;shape=mxgraph.aws4.internet_gateway;fillStyle=solid;" parent="y2iiQ8Q4Z8U-UJoLPL8x-284" vertex="1">
          <mxGeometry x="420" y="50" width="80" height="80" as="geometry" />
        </mxCell>
        <mxCell id="y2iiQ8Q4Z8U-UJoLPL8x-287" style="edgeStyle=orthogonalEdgeStyle;rounded=0;orthogonalLoop=1;jettySize=auto;html=1;entryX=0.5;entryY=0;entryDx=0;entryDy=0;dashed=1;" parent="y2iiQ8Q4Z8U-UJoLPL8x-284" source="y2iiQ8Q4Z8U-UJoLPL8x-288" target="y2iiQ8Q4Z8U-UJoLPL8x-302" edge="1">
          <mxGeometry relative="1" as="geometry" />
        </mxCell>
        <mxCell id="y2iiQ8Q4Z8U-UJoLPL8x-288" value="" style="sketch=0;outlineConnect=0;fontColor=#232F3E;gradientColor=none;fillColor=#8C4FFF;strokeColor=none;dashed=0;verticalLabelPosition=bottom;verticalAlign=top;align=center;html=1;fontSize=12;fontStyle=0;aspect=fixed;pointerEvents=1;shape=mxgraph.aws4.route_table;" parent="y2iiQ8Q4Z8U-UJoLPL8x-284" vertex="1">
          <mxGeometry x="420" y="180" width="82.85" height="80.72" as="geometry" />
        </mxCell>
        <mxCell id="y2iiQ8Q4Z8U-UJoLPL8x-289" value="Public subnet" style="points=[[0,0],[0.25,0],[0.5,0],[0.75,0],[1,0],[1,0.25],[1,0.5],[1,0.75],[1,1],[0.75,1],[0.5,1],[0.25,1],[0,1],[0,0.75],[0,0.5],[0,0.25]];outlineConnect=0;gradientColor=none;html=1;whiteSpace=wrap;fontSize=12;fontStyle=0;container=1;pointerEvents=0;collapsible=0;recursiveResize=0;shape=mxgraph.aws4.group;grIcon=mxgraph.aws4.group_security_group;grStroke=0;strokeColor=#7AA116;fillColor=#F2F6E8;verticalAlign=top;align=left;spacingLeft=30;fontColor=#248814;dashed=0;" parent="y2iiQ8Q4Z8U-UJoLPL8x-284" vertex="1">
          <mxGeometry x="60" y="380" width="270" height="390" as="geometry" />
        </mxCell>
        <mxCell id="y2iiQ8Q4Z8U-UJoLPL8x-290" value="" style="sketch=0;points=[[0,0,0],[0.25,0,0],[0.5,0,0],[0.75,0,0],[1,0,0],[0,1,0],[0.25,1,0],[0.5,1,0],[0.75,1,0],[1,1,0],[0,0.25,0],[0,0.5,0],[0,0.75,0],[1,0.25,0],[1,0.5,0],[1,0.75,0]];outlineConnect=0;fontColor=#232F3E;fillColor=#ED7100;strokeColor=#ffffff;dashed=0;verticalLabelPosition=bottom;verticalAlign=top;align=center;html=1;fontSize=12;fontStyle=0;aspect=fixed;shape=mxgraph.aws4.resourceIcon;resIcon=mxgraph.aws4.ec2;" parent="y2iiQ8Q4Z8U-UJoLPL8x-289" vertex="1">
          <mxGeometry x="33" y="110" width="60" height="60" as="geometry" />
        </mxCell>
        <mxCell id="y2iiQ8Q4Z8U-UJoLPL8x-291" value="&lt;h4&gt;&lt;span style=&quot;font-weight: 400;&quot;&gt;&lt;i&gt;Ec2-Instance&lt;/i&gt;&lt;/span&gt;&lt;/h4&gt;" style="text;html=1;align=center;verticalAlign=middle;whiteSpace=wrap;rounded=0;fontFamily=Helvetica;fontSize=12;fillColor=#e3c800;strokeColor=#B09500;fontColor=#000000;" parent="y2iiQ8Q4Z8U-UJoLPL8x-289" vertex="1">
          <mxGeometry x="15.5" y="90" width="95" height="20" as="geometry" />
        </mxCell>
        <mxCell id="y2iiQ8Q4Z8U-UJoLPL8x-292" value="&lt;h4&gt;&lt;span style=&quot;font-weight: 400;&quot;&gt;&lt;i&gt;US-east-1a&lt;/i&gt;&lt;/span&gt;&lt;/h4&gt;" style="text;html=1;align=center;verticalAlign=middle;whiteSpace=wrap;rounded=0;fillColor=#e3c800;strokeColor=#B09500;fontColor=#000000;" parent="y2iiQ8Q4Z8U-UJoLPL8x-289" vertex="1">
          <mxGeometry x="7.5" y="30" width="160" height="30" as="geometry" />
        </mxCell>
        <mxCell id="y2iiQ8Q4Z8U-UJoLPL8x-293" style="edgeStyle=orthogonalEdgeStyle;rounded=0;orthogonalLoop=1;jettySize=auto;html=1;entryX=0;entryY=0.5;entryDx=0;entryDy=0;strokeColor=#f40101;" parent="y2iiQ8Q4Z8U-UJoLPL8x-289" edge="1">
          <mxGeometry relative="1" as="geometry">
            <mxPoint x="130" y="323" as="sourcePoint" />
            <mxPoint x="196.5" y="323.5" as="targetPoint" />
            <Array as="points">
              <mxPoint x="100" y="323" />
              <mxPoint x="100" y="323" />
            </Array>
          </mxGeometry>
        </mxCell>
        <mxCell id="y2iiQ8Q4Z8U-UJoLPL8x-294" value="" style="sketch=0;outlineConnect=0;fontColor=#232F3E;gradientColor=none;fillColor=#8C4FFF;strokeColor=none;dashed=0;verticalLabelPosition=bottom;verticalAlign=top;align=center;html=1;fontSize=12;fontStyle=0;aspect=fixed;pointerEvents=1;shape=mxgraph.aws4.nat_gateway;" parent="y2iiQ8Q4Z8U-UJoLPL8x-289" vertex="1">
          <mxGeometry y="270" width="107" height="107" as="geometry" />
        </mxCell>
        <mxCell id="y2iiQ8Q4Z8U-UJoLPL8x-295" style="edgeStyle=orthogonalEdgeStyle;rounded=0;orthogonalLoop=1;jettySize=auto;html=1;dashed=1;fillColor=#f8cecc;strokeColor=#b85450;dashPattern=8 8;" parent="y2iiQ8Q4Z8U-UJoLPL8x-289" source="y2iiQ8Q4Z8U-UJoLPL8x-298" edge="1">
          <mxGeometry relative="1" as="geometry">
            <mxPoint x="220" y="140" as="targetPoint" />
            <mxPoint x="233.33333333333394" y="286.75" as="sourcePoint" />
          </mxGeometry>
        </mxCell>
        <mxCell id="y2iiQ8Q4Z8U-UJoLPL8x-296" value="&lt;h4&gt;&lt;span style=&quot;font-weight: 400;&quot;&gt;&lt;i&gt;NAT-GATEWAY&lt;/i&gt;&lt;/span&gt;&lt;/h4&gt;" style="text;html=1;align=center;verticalAlign=middle;whiteSpace=wrap;rounded=0;fontFamily=Helvetica;fontSize=12;fillColor=#e3c800;strokeColor=#B09500;fontColor=#000000;" parent="y2iiQ8Q4Z8U-UJoLPL8x-289" vertex="1">
          <mxGeometry x="7.5" y="240" width="95" height="20" as="geometry" />
        </mxCell>
        <mxCell id="y2iiQ8Q4Z8U-UJoLPL8x-297" value="&lt;h4&gt;&lt;span style=&quot;font-weight: 400;&quot;&gt;&lt;i&gt;Elastic-IP&lt;/i&gt;&lt;/span&gt;&lt;/h4&gt;" style="text;html=1;align=center;verticalAlign=middle;whiteSpace=wrap;rounded=0;fontFamily=Helvetica;fontSize=12;fillColor=#e3c800;strokeColor=#B09500;fontColor=#000000;" parent="y2iiQ8Q4Z8U-UJoLPL8x-289" vertex="1">
          <mxGeometry x="175" y="360.25" width="95" height="20" as="geometry" />
        </mxCell>
        <mxCell id="y2iiQ8Q4Z8U-UJoLPL8x-298" value="" style="sketch=0;outlineConnect=0;fontColor=#232F3E;gradientColor=none;fillColor=#ED7100;strokeColor=none;dashed=0;verticalLabelPosition=bottom;verticalAlign=top;align=center;html=1;fontSize=12;fontStyle=0;aspect=fixed;pointerEvents=1;shape=mxgraph.aws4.elastic_ip_address;" parent="y2iiQ8Q4Z8U-UJoLPL8x-289" vertex="1">
          <mxGeometry x="210" y="313.5" width="48" height="20" as="geometry" />
        </mxCell>
        <mxCell id="y2iiQ8Q4Z8U-UJoLPL8x-299" style="edgeStyle=orthogonalEdgeStyle;rounded=0;orthogonalLoop=1;jettySize=auto;html=1;dashed=1;" parent="y2iiQ8Q4Z8U-UJoLPL8x-284" source="y2iiQ8Q4Z8U-UJoLPL8x-288" target="y2iiQ8Q4Z8U-UJoLPL8x-289" edge="1">
          <mxGeometry relative="1" as="geometry" />
        </mxCell>
        <mxCell id="y2iiQ8Q4Z8U-UJoLPL8x-300" value="Public subnet" style="points=[[0,0],[0.25,0],[0.5,0],[0.75,0],[1,0],[1,0.25],[1,0.5],[1,0.75],[1,1],[0.75,1],[0.5,1],[0.25,1],[0,1],[0,0.75],[0,0.5],[0,0.25]];outlineConnect=0;gradientColor=none;html=1;whiteSpace=wrap;fontSize=12;fontStyle=0;container=1;pointerEvents=0;collapsible=0;recursiveResize=0;shape=mxgraph.aws4.group;grIcon=mxgraph.aws4.group_security_group;grStroke=0;strokeColor=#7AA116;fillColor=#F2F6E8;verticalAlign=top;align=left;spacingLeft=30;fontColor=#248814;dashed=0;" parent="y2iiQ8Q4Z8U-UJoLPL8x-284" vertex="1">
          <mxGeometry x="360" y="380" width="210" height="390" as="geometry" />
        </mxCell>
        <mxCell id="y2iiQ8Q4Z8U-UJoLPL8x-301" value="&lt;h4&gt;&lt;span style=&quot;font-weight: 400;&quot;&gt;&lt;i&gt;US-east-1b&lt;/i&gt;&lt;/span&gt;&lt;/h4&gt;" style="text;html=1;align=center;verticalAlign=middle;whiteSpace=wrap;rounded=0;fillColor=#e3c800;strokeColor=#B09500;fontFamily=Helvetica;fontSize=12;fontColor=#000000;" parent="y2iiQ8Q4Z8U-UJoLPL8x-300" vertex="1">
          <mxGeometry x="30" y="40" width="120" height="30" as="geometry" />
        </mxCell>
        <mxCell id="y2iiQ8Q4Z8U-UJoLPL8x-302" value="Public subnet" style="points=[[0,0],[0.25,0],[0.5,0],[0.75,0],[1,0],[1,0.25],[1,0.5],[1,0.75],[1,1],[0.75,1],[0.5,1],[0.25,1],[0,1],[0,0.75],[0,0.5],[0,0.25]];outlineConnect=0;gradientColor=none;html=1;whiteSpace=wrap;fontSize=12;fontStyle=0;container=1;pointerEvents=0;collapsible=0;recursiveResize=0;shape=mxgraph.aws4.group;grIcon=mxgraph.aws4.group_security_group;grStroke=0;strokeColor=#7AA116;fillColor=#F2F6E8;verticalAlign=top;align=left;spacingLeft=30;fontColor=#248814;dashed=0;" parent="y2iiQ8Q4Z8U-UJoLPL8x-284" vertex="1">
          <mxGeometry x="600" y="380" width="210" height="390" as="geometry" />
        </mxCell>
        <mxCell id="y2iiQ8Q4Z8U-UJoLPL8x-303" value="&lt;h4&gt;&lt;span style=&quot;font-weight: 400;&quot;&gt;&lt;i&gt;US-east-1c&lt;/i&gt;&lt;/span&gt;&lt;/h4&gt;" style="text;html=1;align=center;verticalAlign=middle;whiteSpace=wrap;rounded=0;fillColor=#e3c800;strokeColor=#B09500;fontFamily=Helvetica;fontSize=12;fontColor=#000000;" parent="y2iiQ8Q4Z8U-UJoLPL8x-302" vertex="1">
          <mxGeometry x="5" y="40" width="120" height="30" as="geometry" />
        </mxCell>
        <mxCell id="y2iiQ8Q4Z8U-UJoLPL8x-304" value="" style="sketch=0;points=[[0,0,0],[0.25,0,0],[0.5,0,0],[0.75,0,0],[1,0,0],[0,1,0],[0.25,1,0],[0.5,1,0],[0.75,1,0],[1,1,0],[0,0.25,0],[0,0.5,0],[0,0.75,0],[1,0.25,0],[1,0.5,0],[1,0.75,0]];outlineConnect=0;fontColor=#232F3E;fillColor=#ED7100;strokeColor=#ffffff;dashed=0;verticalLabelPosition=bottom;verticalAlign=top;align=center;html=1;fontSize=12;fontStyle=0;aspect=fixed;shape=mxgraph.aws4.resourceIcon;resIcon=mxgraph.aws4.ec2;" parent="y2iiQ8Q4Z8U-UJoLPL8x-302" vertex="1">
          <mxGeometry x="77.5" y="250" width="100" height="100" as="geometry" />
        </mxCell>
        <mxCell id="y2iiQ8Q4Z8U-UJoLPL8x-305" value="&lt;h4&gt;&lt;span style=&quot;font-weight: 400;&quot;&gt;&lt;i&gt;Ec2-Instance-JUMP&lt;/i&gt;&lt;/span&gt;&lt;/h4&gt;" style="text;html=1;align=center;verticalAlign=middle;whiteSpace=wrap;rounded=0;fontFamily=Helvetica;fontSize=12;fillColor=#e3c800;strokeColor=#B09500;fontColor=#000000;" parent="y2iiQ8Q4Z8U-UJoLPL8x-302" vertex="1">
          <mxGeometry x="57.5" y="220" width="120" height="20" as="geometry" />
        </mxCell>
        <mxCell id="y2iiQ8Q4Z8U-UJoLPL8x-306" value="&lt;h4&gt;&lt;span style=&quot;font-weight: normal;&quot;&gt;&lt;i&gt;Internet GateWay(Entry Gate to VPC)&lt;/i&gt;&lt;/span&gt;&lt;/h4&gt;" style="text;html=1;align=center;verticalAlign=middle;whiteSpace=wrap;rounded=0;fillColor=#e3c800;fontColor=#000000;strokeColor=#B09500;" parent="y2iiQ8Q4Z8U-UJoLPL8x-284" vertex="1">
          <mxGeometry x="510" y="75" width="220" height="30" as="geometry" />
        </mxCell>
        <mxCell id="y2iiQ8Q4Z8U-UJoLPL8x-307" value="&lt;h4&gt;&lt;span style=&quot;font-weight: 400;&quot;&gt;&lt;i&gt;Route Table (Route 2 way Traffic, Subnet &amp;amp; IGW)&lt;/i&gt;&lt;/span&gt;&lt;/h4&gt;" style="text;html=1;align=center;verticalAlign=middle;whiteSpace=wrap;rounded=0;fillColor=#e3c800;strokeColor=#B09500;fontColor=#000000;" parent="y2iiQ8Q4Z8U-UJoLPL8x-284" vertex="1">
          <mxGeometry x="500" y="180" width="220" height="30" as="geometry" />
        </mxCell>
        <mxCell id="y2iiQ8Q4Z8U-UJoLPL8x-308" style="edgeStyle=orthogonalEdgeStyle;rounded=0;orthogonalLoop=1;jettySize=auto;html=1;entryX=1;entryY=0.5;entryDx=0;entryDy=0;entryPerimeter=0;fillColor=#f8cecc;strokeColor=#b85450;dashed=1;dashPattern=8 8;" parent="y2iiQ8Q4Z8U-UJoLPL8x-284" source="y2iiQ8Q4Z8U-UJoLPL8x-288" target="y2iiQ8Q4Z8U-UJoLPL8x-290" edge="1">
          <mxGeometry relative="1" as="geometry" />
        </mxCell>
        <mxCell id="y2iiQ8Q4Z8U-UJoLPL8x-309" value="&lt;h1 style=&quot;margin-top: 0px;&quot;&gt;&lt;u style=&quot;&quot;&gt;&lt;font style=&quot;&quot; face=&quot;Courier New&quot;&gt;PRIVATE SUBNET&lt;/font&gt;&lt;/u&gt;&lt;/h1&gt;&lt;div&gt;&lt;i&gt;\&lt;/i&gt;&lt;/div&gt;&lt;h2 style=&quot;margin-top: 0px;&quot;&gt;&lt;i&gt;1. As Traffic Flow From Internet to EC2 Instance which is hosted on Public Subnet will be accessible&lt;/i&gt;&lt;/h2&gt;&lt;div&gt;&lt;i&gt;&lt;br&gt;&lt;/i&gt;&lt;/div&gt;&lt;h2 style=&quot;margin-top: 0px;&quot;&gt;&lt;i&gt;2. When we Create a EC2-Instance in private subnet , Since it is not connected to the Public Route Table&amp;nbsp; , this cannot do transaction with Internet&amp;nbsp;&lt;br&gt;&lt;/i&gt;&lt;i&gt;&amp;nbsp;&lt;/i&gt;&lt;b&gt;&lt;i&gt;&lt;br&gt;&lt;/i&gt;&lt;/b&gt;&lt;b&gt;&lt;i&gt;3. EC2 Instance hosted on&amp;nbsp; private subnet , Will transact using NAT Gateway &amp;amp; Elastic IP.&lt;/i&gt;&lt;/b&gt;&lt;/h2&gt;&lt;div&gt;&lt;b&gt;&lt;i&gt;&lt;br&gt;&lt;/i&gt;&lt;/b&gt;&lt;h2&gt;&lt;b&gt;&lt;i&gt;4. NAT Gateway will convert the public IP of EC2-Instnace to Public IP with Elastic IP, Using the same IP it will go to internet and If it comes with same IP it will access to respond back to EC2-Instance , If not it will block there itself&lt;/i&gt;&lt;/b&gt;&lt;/h2&gt;&lt;/div&gt;&lt;div&gt;&lt;b&gt;&lt;i&gt;&lt;br&gt;&lt;/i&gt;&lt;/b&gt;&lt;/div&gt;&lt;h2&gt;&lt;b&gt;&lt;i&gt;5.Private Subnets EC2-Instnace can be access using Private IP of Server&lt;/i&gt;&lt;/b&gt;&lt;/h2&gt;" style="text;html=1;whiteSpace=wrap;overflow=hidden;rounded=0;fillColor=#f8cecc;strokeColor=#b85450;align=center;" parent="y2iiQ8Q4Z8U-UJoLPL8x-284" vertex="1">
          <mxGeometry x="961" y="98" width="629" height="462" as="geometry" />
        </mxCell>
        <mxCell id="y2iiQ8Q4Z8U-UJoLPL8x-310" value="Private subnet" style="points=[[0,0],[0.25,0],[0.5,0],[0.75,0],[1,0],[1,0.25],[1,0.5],[1,0.75],[1,1],[0.75,1],[0.5,1],[0.25,1],[0,1],[0,0.75],[0,0.5],[0,0.25]];outlineConnect=0;gradientColor=none;html=1;whiteSpace=wrap;fontSize=12;fontStyle=0;container=1;pointerEvents=0;collapsible=0;recursiveResize=0;shape=mxgraph.aws4.group;grIcon=mxgraph.aws4.group_security_group;grStroke=0;strokeColor=#00A4A6;fillColor=#E6F6F7;verticalAlign=top;align=left;spacingLeft=30;fontColor=#147EBA;dashed=0;" parent="y2iiQ8Q4Z8U-UJoLPL8x-284" vertex="1">
          <mxGeometry x="1100" y="840" width="240" height="380" as="geometry" />
        </mxCell>
        <mxCell id="y2iiQ8Q4Z8U-UJoLPL8x-311" value="Private subnet" style="points=[[0,0],[0.25,0],[0.5,0],[0.75,0],[1,0],[1,0.25],[1,0.5],[1,0.75],[1,1],[0.75,1],[0.5,1],[0.25,1],[0,1],[0,0.75],[0,0.5],[0,0.25]];outlineConnect=0;gradientColor=none;html=1;whiteSpace=wrap;fontSize=12;fontStyle=0;container=1;pointerEvents=0;collapsible=0;recursiveResize=0;shape=mxgraph.aws4.group;grIcon=mxgraph.aws4.group_security_group;grStroke=0;strokeColor=#00A4A6;fillColor=#E6F6F7;verticalAlign=top;align=left;spacingLeft=30;fontColor=#147EBA;dashed=0;" parent="y2iiQ8Q4Z8U-UJoLPL8x-284" vertex="1">
          <mxGeometry x="1450" y="840" width="240" height="380" as="geometry" />
        </mxCell>
        <mxCell id="y2iiQ8Q4Z8U-UJoLPL8x-312" value="" style="sketch=0;points=[[0,0,0],[0.25,0,0],[0.5,0,0],[0.75,0,0],[1,0,0],[0,1,0],[0.25,1,0],[0.5,1,0],[0.75,1,0],[1,1,0],[0,0.25,0],[0,0.5,0],[0,0.75,0],[1,0.25,0],[1,0.5,0],[1,0.75,0]];outlineConnect=0;fontColor=#232F3E;fillColor=#ED7100;strokeColor=#ffffff;dashed=0;verticalLabelPosition=bottom;verticalAlign=top;align=center;html=1;fontSize=12;fontStyle=0;aspect=fixed;shape=mxgraph.aws4.resourceIcon;resIcon=mxgraph.aws4.ec2;" parent="y2iiQ8Q4Z8U-UJoLPL8x-311" vertex="1">
          <mxGeometry x="120" y="260" width="100" height="100" as="geometry" />
        </mxCell>
        <mxCell id="y2iiQ8Q4Z8U-UJoLPL8x-313" value="&lt;h4&gt;&lt;span style=&quot;font-weight: 400;&quot;&gt;&lt;i&gt;Ec2-Instance&lt;/i&gt;&lt;/span&gt;&lt;/h4&gt;" style="text;html=1;align=center;verticalAlign=middle;whiteSpace=wrap;rounded=0;fontFamily=Helvetica;fontSize=12;fontColor=#000000;fillColor=#e3c800;strokeColor=#B09500;" parent="y2iiQ8Q4Z8U-UJoLPL8x-311" vertex="1">
          <mxGeometry x="120" y="230" width="95" height="20" as="geometry" />
        </mxCell>
        <mxCell id="y2iiQ8Q4Z8U-UJoLPL8x-314" style="edgeStyle=orthogonalEdgeStyle;rounded=1;orthogonalLoop=1;jettySize=auto;html=1;curved=0;" parent="y2iiQ8Q4Z8U-UJoLPL8x-284" edge="1">
          <mxGeometry relative="1" as="geometry">
            <mxPoint x="529.9959928024145" y="982.4444444444443" as="sourcePoint" />
            <mxPoint x="131.75" y="750" as="targetPoint" />
          </mxGeometry>
        </mxCell>
        <mxCell id="y2iiQ8Q4Z8U-UJoLPL8x-315" style="edgeStyle=orthogonalEdgeStyle;rounded=0;orthogonalLoop=1;jettySize=auto;html=1;entryX=0.5;entryY=0;entryDx=0;entryDy=0;" parent="y2iiQ8Q4Z8U-UJoLPL8x-284" source="y2iiQ8Q4Z8U-UJoLPL8x-317" target="y2iiQ8Q4Z8U-UJoLPL8x-310" edge="1">
          <mxGeometry relative="1" as="geometry">
            <Array as="points">
              <mxPoint x="1030" y="960" />
              <mxPoint x="1030" y="820" />
              <mxPoint x="1220" y="820" />
            </Array>
          </mxGeometry>
        </mxCell>
        <mxCell id="y2iiQ8Q4Z8U-UJoLPL8x-316" style="edgeStyle=orthogonalEdgeStyle;rounded=0;orthogonalLoop=1;jettySize=auto;html=1;entryX=0.5;entryY=0;entryDx=0;entryDy=0;fillColor=#f8cecc;strokeColor=#b85450;" parent="y2iiQ8Q4Z8U-UJoLPL8x-284" source="y2iiQ8Q4Z8U-UJoLPL8x-317" target="y2iiQ8Q4Z8U-UJoLPL8x-311" edge="1">
          <mxGeometry relative="1" as="geometry" />
        </mxCell>
        <mxCell id="y2iiQ8Q4Z8U-UJoLPL8x-317" value="" style="sketch=0;outlineConnect=0;fontColor=#232F3E;gradientColor=none;fillColor=#8C4FFF;strokeColor=none;dashed=0;verticalLabelPosition=bottom;verticalAlign=top;align=center;html=1;fontSize=12;fontStyle=0;aspect=fixed;pointerEvents=1;shape=mxgraph.aws4.route_table;" parent="y2iiQ8Q4Z8U-UJoLPL8x-284" vertex="1">
          <mxGeometry x="530" y="920" width="82.85" height="80.72" as="geometry" />
        </mxCell>
        <mxCell id="y2iiQ8Q4Z8U-UJoLPL8x-318" style="edgeStyle=orthogonalEdgeStyle;rounded=0;orthogonalLoop=1;jettySize=auto;html=1;entryX=0.5;entryY=0;entryDx=0;entryDy=0;entryPerimeter=0;" parent="y2iiQ8Q4Z8U-UJoLPL8x-284" source="y2iiQ8Q4Z8U-UJoLPL8x-304" target="y2iiQ8Q4Z8U-UJoLPL8x-312" edge="1">
          <mxGeometry relative="1" as="geometry" />
        </mxCell>
        <mxCell id="y2iiQ8Q4Z8U-UJoLPL8x-319" style="edgeStyle=orthogonalEdgeStyle;rounded=0;orthogonalLoop=1;jettySize=auto;html=1;exitX=0.96;exitY=0.7;exitDx=0;exitDy=0;exitPerimeter=0;dashed=1;fillColor=#f8cecc;strokeColor=#b85450;" parent="1" target="y2iiQ8Q4Z8U-UJoLPL8x-286" edge="1">
          <mxGeometry relative="1" as="geometry">
            <mxPoint x="235" y="-2009" as="sourcePoint" />
          </mxGeometry>
        </mxCell>
        <mxCell id="y2iiQ8Q4Z8U-UJoLPL8x-322" value="" style="ellipse;shape=cloud;whiteSpace=wrap;html=1;fillColor=#f8cecc;strokeColor=#b85450;" parent="1" vertex="1">
          <mxGeometry x="120" y="-2050" width="120" height="80" as="geometry" />
        </mxCell>
        <mxCell id="y2iiQ8Q4Z8U-UJoLPL8x-323" value="&lt;h4&gt;&lt;span style=&quot;font-weight: normal;&quot;&gt;&lt;i&gt;Internet&lt;/i&gt;&lt;/span&gt;&lt;/h4&gt;" style="text;html=1;align=center;verticalAlign=middle;whiteSpace=wrap;rounded=0;" parent="1" vertex="1">
          <mxGeometry x="100" y="-2025" width="160" height="30" as="geometry" />
        </mxCell>
        <mxCell id="y2iiQ8Q4Z8U-UJoLPL8x-324" value="VPC" style="points=[[0,0],[0.25,0],[0.5,0],[0.75,0],[1,0],[1,0.25],[1,0.5],[1,0.75],[1,1],[0.75,1],[0.5,1],[0.25,1],[0,1],[0,0.75],[0,0.5],[0,0.25]];outlineConnect=0;gradientColor=none;html=1;whiteSpace=wrap;fontSize=12;fontStyle=0;container=1;pointerEvents=0;collapsible=0;recursiveResize=0;shape=mxgraph.aws4.group;grIcon=mxgraph.aws4.group_vpc2;strokeColor=#8C4FFF;fillColor=none;verticalAlign=top;align=left;spacingLeft=30;fontColor=#AAB7B8;dashed=0;" parent="1" vertex="1">
          <mxGeometry x="3415" y="-1720" width="1930" height="910" as="geometry" />
        </mxCell>
        <mxCell id="y2iiQ8Q4Z8U-UJoLPL8x-325" style="edgeStyle=orthogonalEdgeStyle;rounded=0;orthogonalLoop=1;jettySize=auto;html=1;strokeWidth=3;fillColor=#f8cecc;gradientColor=#ea6b66;strokeColor=#b85450;" parent="y2iiQ8Q4Z8U-UJoLPL8x-324" source="y2iiQ8Q4Z8U-UJoLPL8x-326" target="y2iiQ8Q4Z8U-UJoLPL8x-327" edge="1">
          <mxGeometry relative="1" as="geometry">
            <Array as="points">
              <mxPoint x="315" y="330" />
              <mxPoint x="315" y="330" />
            </Array>
          </mxGeometry>
        </mxCell>
        <mxCell id="y2iiQ8Q4Z8U-UJoLPL8x-326" value="" style="sketch=0;outlineConnect=0;fontColor=#232F3E;gradientColor=none;fillColor=#8C4FFF;strokeColor=none;dashed=0;verticalLabelPosition=bottom;verticalAlign=top;align=center;html=1;fontSize=12;fontStyle=0;aspect=fixed;pointerEvents=1;shape=mxgraph.aws4.internet_gateway;fillStyle=solid;direction=north;" parent="y2iiQ8Q4Z8U-UJoLPL8x-324" vertex="1">
          <mxGeometry x="-5" y="250" width="160" height="160" as="geometry" />
        </mxCell>
        <mxCell id="y2iiQ8Q4Z8U-UJoLPL8x-327" value="" style="sketch=0;outlineConnect=0;fontColor=#232F3E;gradientColor=none;fillColor=#8C4FFF;strokeColor=none;dashed=0;verticalLabelPosition=bottom;verticalAlign=top;align=center;html=1;fontSize=12;fontStyle=0;aspect=fixed;pointerEvents=1;shape=mxgraph.aws4.route_table;direction=north;" parent="y2iiQ8Q4Z8U-UJoLPL8x-324" vertex="1">
          <mxGeometry x="375" y="260" width="156.92" height="161.07" as="geometry" />
        </mxCell>
        <mxCell id="y2iiQ8Q4Z8U-UJoLPL8x-328" value="&lt;h2&gt;Public subnet&lt;/h2&gt;" style="points=[[0,0],[0.25,0],[0.5,0],[0.75,0],[1,0],[1,0.25],[1,0.5],[1,0.75],[1,1],[0.75,1],[0.5,1],[0.25,1],[0,1],[0,0.75],[0,0.5],[0,0.25]];outlineConnect=0;gradientColor=none;html=1;whiteSpace=wrap;fontSize=12;fontStyle=0;container=1;pointerEvents=0;collapsible=0;recursiveResize=0;shape=mxgraph.aws4.group;grIcon=mxgraph.aws4.group_security_group;grStroke=0;strokeColor=#7AA116;fillColor=#F2F6E8;verticalAlign=top;align=left;spacingLeft=30;fontColor=#248814;dashed=0;" parent="y2iiQ8Q4Z8U-UJoLPL8x-324" vertex="1">
          <mxGeometry x="955" y="20" width="755" height="890" as="geometry" />
        </mxCell>
        <mxCell id="y2iiQ8Q4Z8U-UJoLPL8x-329" value="" style="sketch=0;points=[[0,0,0],[0.25,0,0],[0.5,0,0],[0.75,0,0],[1,0,0],[0,1,0],[0.25,1,0],[0.5,1,0],[0.75,1,0],[1,1,0],[0,0.25,0],[0,0.5,0],[0,0.75,0],[1,0.25,0],[1,0.5,0],[1,0.75,0]];outlineConnect=0;fontColor=#232F3E;fillColor=#ED7100;strokeColor=#ffffff;dashed=0;verticalLabelPosition=bottom;verticalAlign=top;align=center;html=1;fontSize=12;fontStyle=0;aspect=fixed;shape=mxgraph.aws4.resourceIcon;resIcon=mxgraph.aws4.ec2;" parent="y2iiQ8Q4Z8U-UJoLPL8x-328" vertex="1">
          <mxGeometry x="370" y="210" width="370" height="370" as="geometry" />
        </mxCell>
        <mxCell id="y2iiQ8Q4Z8U-UJoLPL8x-330" style="edgeStyle=orthogonalEdgeStyle;rounded=0;orthogonalLoop=1;jettySize=auto;html=1;fillColor=#f8cecc;gradientColor=#ea6b66;strokeColor=#b85450;strokeWidth=4;" parent="y2iiQ8Q4Z8U-UJoLPL8x-328" source="y2iiQ8Q4Z8U-UJoLPL8x-331" target="y2iiQ8Q4Z8U-UJoLPL8x-329" edge="1">
          <mxGeometry relative="1" as="geometry">
            <Array as="points">
              <mxPoint x="350" y="430" />
              <mxPoint x="350" y="430" />
            </Array>
          </mxGeometry>
        </mxCell>
        <mxCell id="y2iiQ8Q4Z8U-UJoLPL8x-331" value="`" style="rounded=0;whiteSpace=wrap;html=1;dashed=1;dashPattern=8 8;fillColor=#f8cecc;gradientColor=#ea6b66;strokeColor=#b85450;" parent="y2iiQ8Q4Z8U-UJoLPL8x-328" vertex="1">
          <mxGeometry x="170" y="160" width="120" height="540" as="geometry" />
        </mxCell>
        <mxCell id="y2iiQ8Q4Z8U-UJoLPL8x-332" value="" style="endArrow=none;dashed=1;html=1;rounded=0;dashPattern=12 12;" parent="y2iiQ8Q4Z8U-UJoLPL8x-328" edge="1">
          <mxGeometry width="50" height="50" relative="1" as="geometry">
            <mxPoint x="171" y="195" as="sourcePoint" />
            <mxPoint x="280" y="160" as="targetPoint" />
            <Array as="points">
              <mxPoint x="280" y="160" />
            </Array>
          </mxGeometry>
        </mxCell>
        <mxCell id="y2iiQ8Q4Z8U-UJoLPL8x-333" value="" style="endArrow=none;dashed=1;html=1;rounded=0;entryX=0;entryY=0;entryDx=0;entryDy=0;dashPattern=12 12;" parent="y2iiQ8Q4Z8U-UJoLPL8x-328" edge="1">
          <mxGeometry width="50" height="50" relative="1" as="geometry">
            <mxPoint x="171" y="345" as="sourcePoint" />
            <mxPoint x="170" y="200" as="targetPoint" />
            <Array as="points">
              <mxPoint x="290" y="270" />
            </Array>
          </mxGeometry>
        </mxCell>
        <mxCell id="y2iiQ8Q4Z8U-UJoLPL8x-334" value="" style="endArrow=none;dashed=1;html=1;rounded=0;entryX=0;entryY=0;entryDx=0;entryDy=0;dashPattern=12 12;" parent="y2iiQ8Q4Z8U-UJoLPL8x-328" edge="1">
          <mxGeometry width="50" height="50" relative="1" as="geometry">
            <mxPoint x="171" y="495" as="sourcePoint" />
            <mxPoint x="170" y="350" as="targetPoint" />
            <Array as="points">
              <mxPoint x="290" y="420" />
            </Array>
          </mxGeometry>
        </mxCell>
        <mxCell id="y2iiQ8Q4Z8U-UJoLPL8x-335" value="" style="endArrow=none;dashed=1;html=1;rounded=0;entryX=0;entryY=0;entryDx=0;entryDy=0;dashPattern=12 12;" parent="y2iiQ8Q4Z8U-UJoLPL8x-328" edge="1">
          <mxGeometry width="50" height="50" relative="1" as="geometry">
            <mxPoint x="171" y="645" as="sourcePoint" />
            <mxPoint x="170" y="500" as="targetPoint" />
            <Array as="points">
              <mxPoint x="290" y="570" />
            </Array>
          </mxGeometry>
        </mxCell>
        <mxCell id="y2iiQ8Q4Z8U-UJoLPL8x-336" value="" style="endArrow=none;dashed=1;html=1;rounded=0;entryX=0;entryY=0;entryDx=0;entryDy=0;dashPattern=12 12;" parent="y2iiQ8Q4Z8U-UJoLPL8x-328" edge="1">
          <mxGeometry width="50" height="50" relative="1" as="geometry">
            <mxPoint x="290" y="700" as="sourcePoint" />
            <mxPoint x="170" y="650" as="targetPoint" />
            <Array as="points">
              <mxPoint x="290" y="700" />
            </Array>
          </mxGeometry>
        </mxCell>
        <mxCell id="y2iiQ8Q4Z8U-UJoLPL8x-337" value="&lt;h1&gt;&lt;span style=&quot;&quot;&gt;&lt;i&gt;EC2-Instance&lt;/i&gt;&lt;/span&gt;&lt;/h1&gt;" style="text;html=1;align=center;verticalAlign=middle;whiteSpace=wrap;rounded=0;fontFamily=Helvetica;fontSize=12;fontStyle=1" parent="y2iiQ8Q4Z8U-UJoLPL8x-328" vertex="1">
          <mxGeometry x="390" y="160" width="250" height="60" as="geometry" />
        </mxCell>
        <mxCell id="y2iiQ8Q4Z8U-UJoLPL8x-338" value="&lt;h1&gt;&lt;i style=&quot;&quot;&gt;&lt;font style=&quot;&quot; face=&quot;Helvetica&quot;&gt;Security group&lt;/font&gt;&lt;/i&gt;&lt;/h1&gt;" style="text;html=1;align=center;verticalAlign=middle;whiteSpace=wrap;rounded=0;fontFamily=Helvetica;fontSize=12;" parent="y2iiQ8Q4Z8U-UJoLPL8x-328" vertex="1">
          <mxGeometry x="105" y="710" width="250" height="60" as="geometry" />
        </mxCell>
        <mxCell id="y2iiQ8Q4Z8U-UJoLPL8x-339" value="`" style="rounded=0;whiteSpace=wrap;html=1;dashed=1;dashPattern=8 8;fillColor=#e51400;strokeColor=#B20000;fontColor=#ffffff;" parent="y2iiQ8Q4Z8U-UJoLPL8x-324" vertex="1">
          <mxGeometry x="805" y="20" width="120" height="800" as="geometry" />
        </mxCell>
        <mxCell id="y2iiQ8Q4Z8U-UJoLPL8x-340" value="" style="endArrow=none;dashed=1;html=1;rounded=0;entryX=0;entryY=0;entryDx=0;entryDy=0;dashPattern=12 12;" parent="y2iiQ8Q4Z8U-UJoLPL8x-324" target="y2iiQ8Q4Z8U-UJoLPL8x-339" edge="1">
          <mxGeometry width="50" height="50" relative="1" as="geometry">
            <mxPoint x="806" y="165" as="sourcePoint" />
            <mxPoint x="1035" y="400" as="targetPoint" />
            <Array as="points">
              <mxPoint x="925" y="90" />
            </Array>
          </mxGeometry>
        </mxCell>
        <mxCell id="y2iiQ8Q4Z8U-UJoLPL8x-341" value="" style="endArrow=none;dashed=1;html=1;rounded=0;entryX=0;entryY=0;entryDx=0;entryDy=0;dashPattern=12 12;" parent="y2iiQ8Q4Z8U-UJoLPL8x-324" edge="1">
          <mxGeometry width="50" height="50" relative="1" as="geometry">
            <mxPoint x="806" y="315" as="sourcePoint" />
            <mxPoint x="805" y="170" as="targetPoint" />
            <Array as="points">
              <mxPoint x="925" y="240" />
            </Array>
          </mxGeometry>
        </mxCell>
        <mxCell id="y2iiQ8Q4Z8U-UJoLPL8x-342" value="" style="endArrow=none;dashed=1;html=1;rounded=0;entryX=0;entryY=0;entryDx=0;entryDy=0;dashPattern=12 12;" parent="y2iiQ8Q4Z8U-UJoLPL8x-324" edge="1">
          <mxGeometry width="50" height="50" relative="1" as="geometry">
            <mxPoint x="806" y="465" as="sourcePoint" />
            <mxPoint x="805" y="320" as="targetPoint" />
            <Array as="points">
              <mxPoint x="925" y="390" />
            </Array>
          </mxGeometry>
        </mxCell>
        <mxCell id="y2iiQ8Q4Z8U-UJoLPL8x-343" value="" style="endArrow=none;dashed=1;html=1;rounded=0;entryX=0;entryY=0;entryDx=0;entryDy=0;dashPattern=12 12;" parent="y2iiQ8Q4Z8U-UJoLPL8x-324" edge="1">
          <mxGeometry width="50" height="50" relative="1" as="geometry">
            <mxPoint x="806" y="615" as="sourcePoint" />
            <mxPoint x="805" y="470" as="targetPoint" />
            <Array as="points">
              <mxPoint x="925" y="540" />
            </Array>
          </mxGeometry>
        </mxCell>
        <mxCell id="y2iiQ8Q4Z8U-UJoLPL8x-344" value="" style="endArrow=none;dashed=1;html=1;rounded=0;entryX=0;entryY=0;entryDx=0;entryDy=0;dashPattern=12 12;" parent="y2iiQ8Q4Z8U-UJoLPL8x-324" edge="1">
          <mxGeometry width="50" height="50" relative="1" as="geometry">
            <mxPoint x="806" y="765" as="sourcePoint" />
            <mxPoint x="805" y="620" as="targetPoint" />
            <Array as="points">
              <mxPoint x="925" y="690" />
            </Array>
          </mxGeometry>
        </mxCell>
        <mxCell id="y2iiQ8Q4Z8U-UJoLPL8x-345" value="&lt;h1&gt;&lt;span style=&quot;&quot;&gt;&lt;i&gt;NACL (Priority)&lt;/i&gt;&lt;/span&gt;&lt;/h1&gt;" style="text;html=1;align=center;verticalAlign=middle;whiteSpace=wrap;rounded=0;fontFamily=Helvetica;fontSize=12;fontStyle=1" parent="y2iiQ8Q4Z8U-UJoLPL8x-324" vertex="1">
          <mxGeometry x="715" y="830" width="250" height="60" as="geometry" />
        </mxCell>
        <mxCell id="y2iiQ8Q4Z8U-UJoLPL8x-346" style="edgeStyle=orthogonalEdgeStyle;rounded=0;orthogonalLoop=1;jettySize=auto;html=1;entryX=-0.01;entryY=0.402;entryDx=0;entryDy=0;entryPerimeter=0;fillColor=#f8cecc;gradientColor=#ea6b66;strokeColor=#b85450;strokeWidth=4;" parent="y2iiQ8Q4Z8U-UJoLPL8x-324" edge="1" target="y2iiQ8Q4Z8U-UJoLPL8x-339">
          <mxGeometry relative="1" as="geometry">
            <mxPoint x="545" y="342.89" as="sourcePoint" />
            <mxPoint x="767.12" y="338.18" as="targetPoint" />
            <Array as="points">
              <mxPoint x="767" y="343" />
              <mxPoint x="767" y="342" />
            </Array>
          </mxGeometry>
        </mxCell>
        <mxCell id="y2iiQ8Q4Z8U-UJoLPL8x-347" style="edgeStyle=orthogonalEdgeStyle;rounded=0;orthogonalLoop=1;jettySize=auto;html=1;entryX=-0.019;entryY=0.444;entryDx=0;entryDy=0;entryPerimeter=0;fillColor=#f8cecc;gradientColor=#ea6b66;strokeColor=#b85450;strokeWidth=4;" parent="y2iiQ8Q4Z8U-UJoLPL8x-324" source="y2iiQ8Q4Z8U-UJoLPL8x-339" target="y2iiQ8Q4Z8U-UJoLPL8x-331" edge="1">
          <mxGeometry relative="1" as="geometry" />
        </mxCell>
        <mxCell id="y2iiQ8Q4Z8U-UJoLPL8x-348" value="&lt;h1&gt;&lt;u&gt;&lt;font face=&quot;Courier New&quot;&gt;FIREWALL CONCEPT&lt;/font&gt;&lt;/u&gt;&lt;/h1&gt;" style="text;html=1;align=center;verticalAlign=middle;whiteSpace=wrap;rounded=0;fillColor=#fad7ac;strokeColor=#b46504;" parent="1" vertex="1">
          <mxGeometry x="3400" y="-1930" width="340" height="140" as="geometry" />
        </mxCell>
        <mxCell id="y2iiQ8Q4Z8U-UJoLPL8x-349" style="edgeStyle=orthogonalEdgeStyle;rounded=0;orthogonalLoop=1;jettySize=auto;html=1;fontStyle=1;fillColor=#f8cecc;gradientColor=#ea6b66;strokeColor=#b85450;strokeWidth=15;" parent="1" source="y2iiQ8Q4Z8U-UJoLPL8x-350" target="y2iiQ8Q4Z8U-UJoLPL8x-326" edge="1">
          <mxGeometry relative="1" as="geometry">
            <mxPoint x="3100" y="-1380" as="targetPoint" />
            <Array as="points">
              <mxPoint x="2940" y="-1390" />
              <mxPoint x="2940" y="-1390" />
            </Array>
          </mxGeometry>
        </mxCell>
        <mxCell id="y2iiQ8Q4Z8U-UJoLPL8x-350" value="" style="ellipse;shape=cloud;whiteSpace=wrap;html=1;fillColor=#f8cecc;strokeColor=#b85450;" parent="1" vertex="1">
          <mxGeometry x="2450" y="-1530" width="330" height="310" as="geometry" />
        </mxCell>
        <mxCell id="y2iiQ8Q4Z8U-UJoLPL8x-351" value="&lt;h1&gt;&lt;i&gt;Internet&lt;/i&gt;&lt;/h1&gt;" style="text;html=1;align=center;verticalAlign=middle;whiteSpace=wrap;rounded=0;fontFamily=Helvetica;fontSize=12;fontStyle=1" parent="1" vertex="1">
          <mxGeometry x="2500" y="-1390" width="250" height="60" as="geometry" />
        </mxCell>
      </root>
    </mxGraphModel>
  </diagram>
</mxfile>
